name Walk4.mot
datacolumns 19
datarows 25
range 1.37000000 1.49000000
endheader

                time	   L_ground_force_vx	   L_ground_force_vy	   L_ground_force_vz	   L_ground_force_px	   L_ground_force_py	   L_ground_force_pz	   R_ground_force_vx	   R_ground_force_vy	   R_ground_force_vz	   R_ground_force_px	   R_ground_force_py	   R_ground_force_pz	   L_ground_torque_x	   L_ground_torque_y	   L_ground_torque_z	   R_ground_torque_x	   R_ground_torque_y	   R_ground_torque_z	
          1.37000000	          0.64936529	        633.33159131	         31.55763551	         -0.36955087	          0.00000000	         -0.08185737	         -0.04914383	          0.25820525	          0.00014557	          0.00007124	          0.00000000	          0.00007612	          0.00000000	         -0.92342131	          0.00000000	          0.00000000	         -0.00001770	          0.00000000	
          1.37500000	          2.42457944	        636.44365668	         32.52839026	         -0.36765248	          0.00000000	         -0.08194776	         -0.06252315	          0.33109666	         -0.00056207	          0.00008344	          0.00000000	          0.00008754	          0.00000000	         -0.94436195	          0.00000000	          0.00000000	         -0.00002299	          0.00000000	
          1.38000000	          4.43006566	        640.43196030	         33.48006988	         -0.36580257	          0.00000000	         -0.08199743	         -0.07567573	          0.40392853	         -0.00159623	          0.00009217	          0.00000000	          0.00009455	          0.00000000	         -0.96587689	          0.00000000	          0.00000000	         -0.00002840	          0.00000000	
          1.38500000	          6.70682601	        645.37738408	         34.41768274	         -0.36403231	          0.00000000	         -0.08201033	         -0.08685264	          0.46768534	         -0.00301201	          0.00009442	          0.00000000	          0.00009382	          0.00000000	         -0.98549493	          0.00000000	          0.00000000	         -0.00003333	          0.00000000	
          1.39000000	          9.28869440	        651.32346388	         35.34374692	         -0.36236780	          0.00000000	         -0.08199162	         -0.09357034	          0.50942769	         -0.00484830	          0.00008629	          0.00000000	          0.00008112	          0.00000000	         -1.00097779	          0.00000000	          0.00000000	         -0.00003691	          0.00000000	
          1.39500000	         12.20084223	        658.27348958	         36.25293636	         -0.36082878	          0.00000000	         -0.08194715	         -0.09250592	          0.51169311	         -0.00711383	          0.00006296	          0.00000000	          0.00005130	          0.00000000	         -1.01089571	          0.00000000	          0.00000000	         -0.00003795	          0.00000000	
          1.40000000	         15.45779601	        666.19002990	         37.12568779	         -0.35942774	          0.00000000	         -0.08188260	         -0.07943751	          0.45211964	         -0.00976932	          0.00001883	          0.00000000	         -0.00000152	          0.00000000	         -1.01587176	          0.00000000	          0.00000000	         -0.00003488	          0.00000000	
          1.40500000	         19.06255159	        674.99001964	         37.92234921	         -0.35817056	          0.00000000	         -0.08180199	         -0.04926202	          0.30346293	         -0.01270540	         -0.00005232	          0.00000000	         -0.00008370	          0.00000000	         -1.02002213	          0.00000000	          0.00000000	         -0.00002580	          0.00000000	
          1.41000000	         23.00185219	        684.54694257	         38.59288064	         -0.35705600	          0.00000000	         -0.08170742	          0.00386842	          0.03422518	         -0.01571694	         -0.00015682	          0.00000000	         -0.00020153	          0.00000000	         -1.03005686	          0.00000000	          0.00000000	         -0.00000845	          0.00000000	
          1.41500000	         27.24388040	        694.69862863	         39.10276350	         -0.35607571	          0.00000000	         -0.08160130	          0.08624186	         -0.38983964	         -0.01847473	         -0.00030042	          0.00000000	         -0.00036042	          0.00000000	         -1.05173492	          0.00000000	          0.00000000	          0.00001964	          0.00000000	
          1.42000000	         31.75185122	        705.25288453	         39.43769334	         -0.35521661	          0.00000000	         -0.08148716	          0.20405728	         -1.00303954	         -0.02049671	         -0.00048731	          0.00000000	         -0.00056373	          0.00000000	         -1.08839041	          0.00000000	          0.00000000	          0.00006103	          0.00000000	
          1.42500000	         36.49150755	        716.00150273	         39.59830858	         -0.35446246	          0.00000000	         -0.08136814	          0.36261028	         -1.83554808	         -0.02112194	         -0.00071864	          0.00000000	         -0.00081126	          0.00000000	         -1.14098833	          0.00000000	          0.00000000	          0.00011803	          0.00000000	
          1.43000000	         41.42772056	        726.73331663	         39.59884979	         -0.35379482	          0.00000000	         -0.08124612	          0.56513457	         -2.90737039	         -0.01949198	         -0.00099074	          0.00000000	         -0.00109718	          0.00000000	         -1.20842700	          0.00000000	          0.00000000	          0.00019237	          0.00000000	
          1.43500000	         46.52182725	        737.24003879	         39.46483044	         -0.35319396	          0.00000000	         -0.08112247	          0.81124987	         -4.22018794	         -0.01454634	         -0.00129287	          0.00000000	         -0.00140774	          0.00000000	         -1.28792514	          0.00000000	          0.00000000	          0.00028457	          0.00000000	
          1.44000000	         51.73400865	        747.31967345	         39.23097570	         -0.35264013	          0.00000000	         -0.08099808	          1.09498720	         -5.74690131	         -0.00504024	         -0.00160455	          0.00000000	         -0.00171840	          0.00000000	         -1.37551811	          0.00000000	          0.00000000	          0.00039325	          0.00000000	
          1.44500000	         57.02797297	        756.78046963	         38.93720274	         -0.35211567	          0.00000000	         -0.08087195	          1.40239876	         -7.41887286	          0.01040498	         -0.00189269	          0.00000000	         -0.00199092	          0.00000000	         -1.46693431	          0.00000000	          0.00000000	          0.00051422	          0.00000000	
          1.45000000	         62.37217610	        765.44243153	         38.62055449	         -0.35160620	          0.00000000	         -0.08074217	          1.70881497	         -9.11115603	          0.03320673	         -0.00210859	          0.00000000	         -0.00217033	          0.00000000	         -1.55799129	          0.00000000	          0.00000000	          0.00063944	          0.00000000	
          1.45500000	         67.73717895	        773.13759677	         38.30814288	         -0.35110015	          0.00000000	         -0.08060708	          1.97588931	        -10.62640668	          0.06466798	         -0.00218522	          0.00000000	         -0.00218245	          0.00000000	         -1.64468470	          0.00000000	          0.00000000	          0.00075584	          0.00000000	
          1.46000000	         73.09483844	        779.70873554	         38.01374645	         -0.35058854	          0.00000000	         -0.08046482	          2.14867699	        -11.67872347	          0.10575264	         -0.00203520	          0.00000000	         -0.00193218	          0.00000000	         -1.72344371	          0.00000000	          0.00000000	          0.00084414	          0.00000000	
          1.46500000	         78.41840345	        785.00675542	         37.73722960	         -0.35006534	          0.00000000	         -0.08031310	          2.15312638	        -11.87937038	          0.15677695	         -0.00155028	          0.00000000	         -0.00130363	          0.00000000	         -1.79152014	          0.00000000	          0.00000000	          0.00087773	          0.00000000	
          1.47000000	         83.68136692	        788.89115886	         37.46633327	         -0.34952736	          0.00000000	         -0.08014945	          1.89452373	        -10.72719515	          0.21700823	         -0.00060291	          0.00000000	         -0.00016271	          0.00000000	         -1.84735669	          0.00000000	          0.00000000	          0.00082187	          0.00000000	
          1.47500000	         88.85549321	        791.23071613	         37.17974943	         -0.34897319	          0.00000000	         -0.07997019	          1.25761603	         -7.60755209	          0.28416846	          0.00094876	          0.00000000	          0.00163649	          0.00000000	         -1.89051678	          0.00000000	          0.00000000	          0.00063339	          0.00000000	
          1.48000000	         93.90872106	        791.90147027	         36.84995143	         -0.34840190	          0.00000000	         -0.07977076	          0.10933571	         -1.80461920	          0.35385080	          0.00325140	          0.00000000	          0.00424030	          0.00000000	         -1.92126358	          0.00000000	          0.00000000	          0.00026136	          0.00000000	
          1.48500000	         98.80309096	        790.78513818	         36.44632092	         -0.34781276	          0.00000000	         -0.07954642	         -1.69475349	          7.46691682	          0.41887230	          0.00644109	          0.00000000	          0.00777768	          0.00000000	         -1.94006994	          0.00000000	          0.00000000	         -0.00035100	          0.00000000	
          1.49000000	        103.49353831	        787.76914135	         35.93772085	         -0.34720590	          0.00000000	         -0.07929308	         -4.29900288	         21.00388146	          0.46860678	          0.01062066	          0.00000000	          0.01233459	          0.00000000	         -1.94758076	          0.00000000	          0.00000000	         -0.00126261	          0.00000000	
